<?xml version="1.0" encoding="UTF-8" standalone="no"?>
<!-- Created with Inkscape (http://www.inkscape.org/) -->

<svg
   version="1.1"
   id="svg2"
   xml:space="preserve"
   width="145.33466"
   height="51.98933"
   viewBox="0 0 145.33466 51.989331"
   sodipodi:docname="5ee706e05c8fa34a34feef437bb3d6a8.eps"
   xmlns:inkscape="http://www.inkscape.org/namespaces/inkscape"
   xmlns:sodipodi="http://sodipodi.sourceforge.net/DTD/sodipodi-0.dtd"
   xmlns="http://www.w3.org/2000/svg"
   xmlns:svg="http://www.w3.org/2000/svg"><defs
     id="defs6" /><sodipodi:namedview
     id="namedview4"
     pagecolor="#ffffff"
     bordercolor="#666666"
     borderopacity="1.0"
     inkscape:pageshadow="2"
     inkscape:pageopacity="0.0"
     inkscape:pagecheckerboard="0" /><g
     id="g8"
     inkscape:groupmode="layer"
     inkscape:label="ink_ext_XXXXXX"
     transform="matrix(1.3333333,0,0,-1.3333333,-17.766666,167.31066)"><g
       id="g10"
       transform="scale(0.1)"><path
         d="m 217.422,1122.52 60.226,0.08 -31.558,69.91 z m -35.66,-86.62 -35.801,0.02 85.258,202.49 h 69.261 l 92.11,-202.49 h -76.82 l -27,59.14 h -82.918 l -24.09,-59.16"
         style="fill:#182539;fill-opacity:1;fill-rule:nonzero;stroke:none"
         id="path12" /><path
         d="m 394.879,1254.83 h 54.801 v -180.22 c 0,-4.74 0.379,-8.42 1.14,-10.97 0.758,-2.6 2.149,-4.61 4.192,-6.06 2.027,-1.03 5.066,-1.54 9.136,-1.54 h 23.211 v -20.12 H 432.93 c -12.93,0 -22.52,2.21 -28.731,6.64 -6.219,4.45 -9.32,11.31 -9.32,20.59 v 191.68"
         style="fill:#182539;fill-opacity:1;fill-rule:nonzero;stroke:none"
         id="path14" /><path
         d="m 488.129,1254.83 h 54.801 v -180.22 c 0,-4.74 0.379,-8.42 1.14,-10.97 0.758,-2.6 2.149,-4.61 4.192,-6.06 2.019,-1.03 5.066,-1.54 9.129,-1.54 h 23.218 v -20.12 H 526.18 c -12.942,0 -22.508,2.21 -28.731,6.64 -6.23,4.45 -9.32,11.31 -9.32,20.59 v 191.68"
         style="fill:#182539;fill-opacity:1;fill-rule:nonzero;stroke:none"
         id="path16" /><path
         d="m 658.25,1071.21 34.629,17.66 c 4.051,-6.19 8.043,-11.47 11.992,-15.8 3.938,-4.34 8.758,-7.89 14.449,-10.68 5.719,-2.8 11.879,-4.18 18.469,-4.18 9.91,0 17.711,2.16 23.402,6.5 5.719,4.34 8.571,10.31 8.571,17.97 0,7.83 -3.434,13.61 -10.282,17.32 -3.789,1.86 -10.402,4.85 -19.781,8.99 -5.597,2.48 -12.051,5.15 -19.429,8.04 -19.782,7.84 -34.372,15.9 -43.758,24.16 -9.391,8.25 -14.082,19.71 -14.082,34.37 0,13.82 3.55,25.9 10.672,36.23 7.078,10.32 17.187,18.37 30.25,24.15 13.07,5.76 27.847,8.67 44.347,8.67 19.781,0 36.071,-3.26 48.891,-9.76 12.832,-6.51 24.289,-16.56 34.461,-30.19 l -27.789,-17.65 c -6.614,9.92 -13.391,17.39 -20.371,22.45 -6.981,5.05 -15.93,7.58 -26.832,7.58 -9.649,0 -16.879,-2.27 -21.688,-6.8 -4.82,-4.55 -7.25,-10.84 -7.25,-18.89 0,-7.23 6.738,-13.84 20.188,-19.81 13.453,-5.99 26.89,-11.58 40.339,-16.73 13.442,-5.16 25,-12.03 34.653,-20.59 9.64,-8.57 14.449,-20.49 14.449,-35.76 0,-14.04 -3.922,-26.11 -11.789,-36.23 -4.082,-5.16 -8.633,-9.71 -13.699,-13.61 -5.102,-3.93 -11.051,-7.25 -17.91,-9.93 -13.692,-5.37 -28.903,-8.04 -45.653,-8.04 -20.578,0 -38.129,3.14 -52.711,9.45 -14.609,6.29 -26.847,16.66 -36.738,31.11"
         style="fill:#182539;fill-opacity:1;fill-rule:nonzero;stroke:none"
         id="path18" /><path
         d="m 826.469,1147.68 v 24.16 h 140.832 v -24.16 h -43.012 v -111.76 h -54.82 v 111.76 h -43"
         style="fill:#182539;fill-opacity:1;fill-rule:nonzero;stroke:none"
         id="path20" /><path
         d="m 1057.5,1035.92 v 135.92 h 86.4 c 10.14,0 19.45,-1.7 27.97,-5.12 8.5,-3.42 15.16,-8.32 19.98,-14.74 4.82,-6.41 7.23,-13.56 7.23,-21.41 0,-19.04 -10.41,-30.53 -31.21,-34.45 l 47.57,-60.2 h -61.66 l -38.06,66.88 c 19.04,0 28.55,8.67 28.55,26.01 0,7.62 -2.54,13.61 -7.61,17.95 -5.08,4.34 -11.16,6.5 -18.27,6.5 h -6.09 v -117.34 h -54.8"
         style="fill:#182539;fill-opacity:1;fill-rule:nonzero;stroke:none"
         id="path22" /><path
         d="m 996.031,1190.57 25.159,-50.98 56.25,-8.18 -40.71,-39.67 9.61,-56.01 -50.309,26.42 -50.312,-26.42 9.601,56.01 -40.718,39.67 56.269,8.18 25.16,50.98"
         style="fill:#f04322;fill-opacity:1;fill-rule:nonzero;stroke:none"
         id="path24" /><path
         d="m 996.031,1190.57 25.159,-50.98 56.25,-8.18 -40.71,-39.67 9.61,-56.01 -50.309,26.42 -50.312,-26.42 9.601,56.01 -40.718,39.67 56.269,8.18 z"
         style="fill:none;stroke:#ffffff;stroke-width:7.5;stroke-linecap:butt;stroke-linejoin:miter;stroke-miterlimit:1.414;stroke-dasharray:none;stroke-opacity:1"
         id="path26" /><path
         d="M 1223.26,997.328 H 133.25 v 7.652 h 1090.01 v -7.652"
         style="fill:#f04322;fill-opacity:1;fill-rule:nonzero;stroke:none"
         id="path28" /><path
         d="m 627,887.512 v 76.859 h 11.422 V 926.25 l 42.828,38.121 h 15.48 L 660.539,933.23 698.32,887.512 H 683.25 L 652.539,926.41 638.422,914.141 V 887.512 H 627"
         style="fill:#182539;fill-opacity:1;fill-rule:nonzero;stroke:none"
         id="path30" /><path
         d="m 706.031,866.059 -1.179,8.871 c 2.308,-0.559 4.328,-0.84 6.058,-0.84 2.352,0 4.238,0.351 5.649,1.051 1.41,0.687 2.57,1.668 3.472,2.929 0.668,0.942 1.75,3.289 3.239,7.032 0.191,0.519 0.511,1.289 0.941,2.296 L 700.5,943.191 h 11.41 l 13,-32.25 c 1.692,-4.089 3.199,-8.382 4.539,-12.89 1.211,4.328 2.66,8.558 4.352,12.679 l 13.359,32.461 h 10.59 l -23.77,-56.632 c -2.55,-6.11 -4.531,-10.321 -5.949,-12.629 -1.883,-3.11 -4.043,-5.391 -6.472,-6.84 -2.43,-1.449 -5.329,-2.18 -8.707,-2.18 -2.043,0 -4.313,0.391 -6.821,1.149"
         style="fill:#182539;fill-opacity:1;fill-rule:nonzero;stroke:none"
         id="path32" /><path
         d="m 766.809,953.52 v 10.851 h 10.589 V 953.52 Z m 0,-66.008 v 55.679 h 10.589 v -55.679 h -10.589"
         style="fill:#182539;fill-opacity:1;fill-rule:nonzero;stroke:none"
         id="path34" /><path
         d="m 810.879,887.512 -23.77,55.679 h 11.18 l 13.422,-33.351 c 1.449,-3.602 2.777,-7.34 4,-11.219 0.937,2.938 2.25,6.469 3.937,10.59 l 13.891,33.98 h 10.883 L 820.77,887.512 h -9.891"
         style="fill:#182539;fill-opacity:1;fill-rule:nonzero;stroke:none"
         id="path36" /><path
         d="m 888.789,887.512 v 76.859 h 38.25 c 7.691,0 13.531,-0.691 17.531,-2.07 4,-1.379 7.2,-3.821 9.59,-7.313 2.399,-3.5 3.59,-7.359 3.59,-11.59 0,-5.449 -1.98,-10.046 -5.941,-13.789 -3.957,-3.738 -10.079,-6.121 -18.36,-7.129 3.02,-1.289 5.321,-2.57 6.879,-3.832 3.344,-2.718 6.5,-6.128 9.481,-10.218 l 15,-20.918 H 950.461 L 939.039,903.5 c -3.328,4.609 -6.078,8.141 -8.238,10.59 -2.16,2.449 -4.09,4.16 -5.789,5.14 -1.711,0.981 -3.453,1.661 -5.211,2.04 -1.301,0.25 -3.41,0.371 -6.36,0.371 h -13.242 v -34.129 z m 11.41,42.937 h 24.539 c 5.223,0 9.301,0.481 12.242,1.442 2.942,0.961 5.18,2.5 6.711,4.609 1.528,2.121 2.289,4.422 2.289,6.898 0,3.633 -1.48,6.622 -4.441,8.961 -2.961,2.352 -7.641,3.52 -14.027,3.52 h -27.313 v -25.43"
         style="fill:#182539;fill-opacity:1;fill-rule:nonzero;stroke:none"
         id="path38" /><path
         d="m 1017.06,905.441 10.95,-1.211 c -1.73,-5.691 -4.92,-10.121 -9.59,-13.261 -4.67,-3.149 -10.63,-4.719 -17.89,-4.719 -9.139,0 -16.389,2.512 -21.741,7.52 -5.359,5.019 -8.027,12.05 -8.027,21.109 0,9.359 2.699,16.633 8.117,21.812 5.41,5.168 12.43,7.758 21.062,7.758 8.359,0 15.179,-2.539 20.479,-7.609 5.29,-5.059 7.94,-12.192 7.94,-21.391 0,-0.558 -0.02,-1.39 -0.06,-2.508 h -46.601 c 0.391,-6.121 2.332,-10.8 5.832,-14.05 3.489,-3.25 7.84,-4.879 13.059,-4.879 3.88,0 7.2,0.91 9.94,2.726 2.75,1.813 4.93,4.711 6.53,8.703 z m -34.771,15.258 h 34.891 c -0.47,4.68 -1.8,8.192 -4,10.531 -3.37,3.641 -7.75,5.461 -13.12,5.461 -4.861,0 -8.951,-1.453 -12.271,-4.351 -3.309,-2.91 -5.148,-6.789 -5.5,-11.641"
         style="fill:#182539;fill-opacity:1;fill-rule:nonzero;stroke:none"
         id="path40" /><path
         d="m 1082.08,894.379 c -3.92,-2.969 -7.69,-5.07 -11.32,-6.289 -3.63,-1.231 -7.52,-1.84 -11.68,-1.84 -6.87,0 -12.14,1.488 -15.83,4.48 -3.69,2.989 -5.53,6.809 -5.53,11.461 0,2.731 0.69,5.219 2.09,7.469 1.39,2.25 3.21,4.059 5.47,5.43 2.25,1.359 4.79,2.39 7.62,3.09 2.08,0.492 5.22,0.961 9.41,1.422 8.56,0.898 14.85,1.988 18.89,3.25 0.04,1.289 0.06,2.109 0.06,2.457 0,3.839 -1,6.55 -3,8.132 -2.71,2.129 -6.73,3.188 -12.06,3.188 -4.98,0 -8.66,-0.77 -11.04,-2.328 -2.37,-1.551 -4.12,-4.313 -5.26,-8.262 l -10.36,1.262 c 0.94,3.949 2.49,7.14 4.65,9.57 2.16,2.43 5.28,4.301 9.36,5.609 4.08,1.309 8.8,1.969 14.18,1.969 5.33,0 9.67,-0.558 13,-1.679 3.34,-1.122 5.79,-2.532 7.36,-4.219 1.57,-1.699 2.66,-3.84 3.29,-6.422 0.36,-1.609 0.53,-4.508 0.53,-8.707 V 910.84 c 0,-8.77 0.23,-14.32 0.68,-16.649 0.45,-2.32 1.34,-4.55 2.68,-6.679 h -11.07 c -1.1,1.957 -1.8,4.25 -2.12,6.867 z m -0.88,21.07 c -3.84,-1.39 -9.61,-2.578 -17.3,-3.558 -4.35,-0.563 -7.43,-1.192 -9.24,-1.891 -1.8,-0.699 -3.19,-1.719 -4.17,-3.07 -0.98,-1.34 -1.47,-2.84 -1.47,-4.481 0,-2.519 1.06,-4.609 3.2,-6.289 2.14,-1.68 5.27,-2.519 9.39,-2.519 4.08,0 7.71,0.8 10.88,2.39 3.18,1.59 5.52,3.758 7.01,6.528 1.13,2.132 1.7,5.269 1.7,9.429 v 3.461"
         style="fill:#182539;fill-opacity:1;fill-rule:nonzero;stroke:none"
         id="path42" /><path
         d="m 1108.09,887.512 v 76.859 h 10.59 v -76.859 h -10.59"
         style="fill:#182539;fill-opacity:1;fill-rule:nonzero;stroke:none"
         id="path44" /><path
         d="m 1158.23,895.949 1.53,-8.34 c -2.99,-0.558 -5.65,-0.839 -8.01,-0.839 -3.84,0 -6.82,0.55 -8.94,1.628 -2.12,1.082 -3.61,2.512 -4.47,4.274 -0.87,1.769 -1.3,5.476 -1.3,11.137 v 32.043 h -7.76 v 7.339 h 7.76 v 13.789 l 10.54,5.661 v -19.45 h 10.65 v -7.339 h -10.65 v -32.563 c 0,-2.687 0.18,-4.418 0.55,-5.187 0.38,-0.774 0.99,-1.383 1.83,-1.84 0.84,-0.453 2.05,-0.684 3.62,-0.684 1.17,0 2.72,0.121 4.65,0.371"
         style="fill:#182539;fill-opacity:1;fill-rule:nonzero;stroke:none"
         id="path46" /><path
         d="m 1168.11,866.059 -1.18,8.871 c 2.32,-0.559 4.34,-0.84 6.07,-0.84 2.35,0 4.23,0.351 5.64,1.051 1.42,0.687 2.57,1.668 3.48,2.929 0.66,0.942 1.74,3.289 3.23,7.032 0.2,0.519 0.51,1.289 0.94,2.296 l -23.71,55.793 H 1174 l 13,-32.25 c 1.69,-4.089 3.2,-8.382 4.53,-12.89 1.22,4.328 2.67,8.558 4.36,12.679 l 13.35,32.461 h 10.59 l -23.77,-56.632 c -2.55,-6.11 -4.53,-10.321 -5.94,-12.629 -1.88,-3.11 -4.04,-5.391 -6.47,-6.84 -2.44,-1.449 -5.34,-2.18 -8.71,-2.18 -2.04,0 -4.32,0.391 -6.83,1.149"
         style="fill:#182539;fill-opacity:1;fill-rule:nonzero;stroke:none"
         id="path48" /></g></g></svg>
