<?xml version="1.0" encoding="UTF-8" standalone="no"?>
<!DOCTYPE svg PUBLIC "-//W3C//DTD SVG 1.1//EN" "http://www.w3.org/Graphics/SVG/1.1/DTD/svg11.dtd">
<svg width="100%" height="100%" viewBox="0 0 455 163" version="1.1" xmlns="http://www.w3.org/2000/svg" xmlns:xlink="http://www.w3.org/1999/xlink" xml:space="preserve" xmlns:serif="http://www.serif.com/" style="fill-rule:evenodd;clip-rule:evenodd;stroke-miterlimit:2;">
    <g transform="matrix(1,0,0,1,-55.5208,-118.821)">
        <g transform="matrix(4.16667,0,0,4.16667,0,0)">
            <path d="M21.742,41.748L27.765,41.74L24.609,34.749L21.742,41.748ZM18.176,50.41L14.596,50.408L23.122,30.159L30.048,30.159L39.259,50.408L31.577,50.408L28.877,44.494L20.585,44.494L18.176,50.41Z" style="fill:white;fill-rule:nonzero;"/>
        </g>
        <g transform="matrix(4.16667,0,0,4.16667,0,0)">
            <path d="M39.488,28.517L44.968,28.517L44.968,46.539C44.968,47.013 45.006,47.381 45.082,47.636C45.158,47.896 45.297,48.097 45.501,48.242C45.704,48.345 46.008,48.396 46.415,48.396L48.736,48.396L48.736,50.408L43.293,50.408C42,50.408 41.041,50.187 40.42,49.744C39.798,49.299 39.488,48.613 39.488,47.685L39.488,28.517Z" style="fill:white;fill-rule:nonzero;"/>
        </g>
        <g transform="matrix(4.16667,0,0,4.16667,0,0)">
            <path d="M48.813,28.517L54.293,28.517L54.293,46.539C54.293,47.013 54.331,47.381 54.407,47.636C54.483,47.896 54.622,48.097 54.826,48.242C55.028,48.345 55.333,48.396 55.739,48.396L58.061,48.396L58.061,50.408L52.618,50.408C51.324,50.408 50.367,50.187 49.745,49.744C49.122,49.299 48.813,48.613 48.813,47.685L48.813,28.517Z" style="fill:white;fill-rule:nonzero;"/>
        </g>
        <g transform="matrix(4.16667,0,0,4.16667,0,0)">
            <path d="M65.825,46.879L69.288,45.113C69.693,45.732 70.092,46.26 70.487,46.693C70.881,47.127 71.363,47.482 71.932,47.761C72.504,48.041 73.12,48.179 73.779,48.179C74.77,48.179 75.55,47.963 76.119,47.529C76.691,47.095 76.976,46.498 76.976,45.732C76.976,44.949 76.633,44.371 75.948,44C75.569,43.814 74.908,43.515 73.97,43.101C73.41,42.853 72.765,42.586 72.027,42.297C70.049,41.513 68.59,40.707 67.651,39.881C66.712,39.056 66.243,37.91 66.243,36.444C66.243,35.062 66.598,33.854 67.31,32.821C68.018,31.789 69.029,30.984 70.335,30.406C71.642,29.83 73.12,29.539 74.77,29.539C76.748,29.539 78.377,29.865 79.659,30.515C80.942,31.166 82.088,32.171 83.105,33.534L80.326,35.299C79.665,34.307 78.987,33.56 78.289,33.054C77.591,32.549 76.696,32.296 75.606,32.296C74.641,32.296 73.918,32.523 73.437,32.976C72.955,33.431 72.712,34.06 72.712,34.865C72.712,35.588 73.386,36.249 74.731,36.846C76.076,37.445 77.42,38.004 78.765,38.519C80.109,39.035 81.265,39.722 82.23,40.578C83.194,41.435 83.675,42.627 83.675,44.154C83.675,45.558 83.283,46.765 82.496,47.777C82.088,48.293 81.633,48.748 81.126,49.138C80.616,49.531 80.021,49.863 79.335,50.131C77.966,50.668 76.445,50.935 74.77,50.935C72.712,50.935 70.957,50.621 69.499,49.99C68.038,49.361 66.814,48.324 65.825,46.879Z" style="fill:white;fill-rule:nonzero;"/>
        </g>
        <g transform="matrix(4.16667,0,0,4.16667,0,0)">
            <path d="M82.647,39.232L82.647,36.816L96.73,36.816L96.73,39.232L92.429,39.232L92.429,50.408L86.947,50.408L86.947,39.232L82.647,39.232Z" style="fill:white;fill-rule:nonzero;"/>
        </g>
        <g transform="matrix(4.16667,0,0,4.16667,0,0)">
            <path d="M105.75,50.408L105.75,36.816L114.39,36.816C115.404,36.816 116.335,36.986 117.187,37.328C118.037,37.67 118.703,38.16 119.185,38.802C119.667,39.443 119.908,40.158 119.908,40.943C119.908,42.847 118.867,43.996 116.787,44.388L121.544,50.408L115.378,50.408L111.572,43.72C113.476,43.72 114.427,42.853 114.427,41.119C114.427,40.357 114.173,39.758 113.666,39.324C113.158,38.89 112.55,38.674 111.839,38.674L111.23,38.674L111.23,50.408L105.75,50.408Z" style="fill:white;fill-rule:nonzero;"/>
        </g>
        <g transform="matrix(4.16667,0,0,4.16667,0,0)">
            <path d="M99.603,34.943L102.119,40.041L107.744,40.859L103.673,44.826L104.634,50.427L99.603,47.785L94.572,50.427L95.532,44.826L91.46,40.859L97.087,40.041L99.603,34.943Z" style="fill:rgb(241,87,38);fill-rule:nonzero;"/>
        </g>
        <g transform="matrix(4.16667,0,0,4.16667,0,0)">
            <path d="M99.603,34.943L102.119,40.041L107.744,40.859L103.673,44.826L104.634,50.427L99.603,47.785L94.572,50.427L95.532,44.826L91.46,40.859L97.087,40.041L99.603,34.943Z" style="fill:none;stroke:white;stroke-width:0.75px;"/>
        </g>
        <g transform="matrix(4.16667,0,0,4.16667,0,0)">
            <rect x="13.325" y="53.502" width="109.001" height="0.765" style="fill:rgb(241,87,38);fill-rule:nonzero;"/>
        </g>
        <g transform="matrix(4.16667,0,0,4.16667,0,0)">
            <path d="M62.7,65.249L62.7,57.563L63.842,57.563L63.842,61.375L68.125,57.563L69.673,57.563L66.054,60.677L69.832,65.249L68.325,65.249L65.253,61.359L63.842,62.586L63.842,65.249L62.7,65.249Z" style="fill:white;fill-rule:nonzero;"/>
        </g>
        <g transform="matrix(4.16667,0,0,4.16667,0,0)">
            <path d="M70.603,67.394L70.485,66.507C70.716,66.563 70.918,66.591 71.091,66.591C71.326,66.591 71.515,66.556 71.656,66.486C71.797,66.417 71.913,66.319 72.003,66.193C72.07,66.099 72.178,65.864 72.327,65.49C72.346,65.438 72.378,65.361 72.421,65.26L70.05,59.681L71.191,59.681L72.491,62.906C72.66,63.315 72.811,63.744 72.945,64.195C73.066,63.762 73.211,63.339 73.38,62.927L74.716,59.681L75.775,59.681L73.398,65.344C73.143,65.955 72.945,66.376 72.803,66.607C72.615,66.918 72.399,67.146 72.156,67.291C71.913,67.436 71.623,67.509 71.285,67.509C71.081,67.509 70.854,67.47 70.603,67.394Z" style="fill:white;fill-rule:nonzero;"/>
        </g>
        <g transform="matrix(4.16667,0,0,4.16667,0,0)">
            <path d="M76.681,58.648L76.681,57.563L77.74,57.563L77.74,58.648L76.681,58.648ZM76.681,65.249L76.681,59.681L77.74,59.681L77.74,65.249L76.681,65.249Z" style="fill:white;fill-rule:nonzero;"/>
        </g>
        <g transform="matrix(4.16667,0,0,4.16667,0,0)">
            <path d="M81.088,65.249L78.711,59.681L79.829,59.681L81.171,63.016C81.316,63.376 81.449,63.75 81.571,64.138C81.665,63.844 81.796,63.491 81.965,63.079L83.354,59.681L84.442,59.681L82.077,65.249L81.088,65.249Z" style="fill:white;fill-rule:nonzero;"/>
        </g>
        <g transform="matrix(4.16667,0,0,4.16667,0,0)">
            <path d="M88.879,65.249L88.879,57.563L92.704,57.563C93.473,57.563 94.057,57.632 94.457,57.77C94.857,57.908 95.177,58.152 95.416,58.501C95.656,58.851 95.775,59.237 95.775,59.66C95.775,60.205 95.577,60.665 95.181,61.039C94.785,61.413 94.173,61.651 93.345,61.752C93.647,61.881 93.877,62.009 94.033,62.135C94.367,62.407 94.683,62.748 94.981,63.157L96.481,65.249L95.046,65.249L93.904,63.65C93.571,63.189 93.296,62.836 93.08,62.591C92.864,62.346 92.671,62.175 92.501,62.077C92.33,61.979 92.156,61.911 91.98,61.873C91.85,61.848 91.639,61.836 91.344,61.836L90.02,61.836L90.02,65.249L88.879,65.249ZM90.02,60.955L92.474,60.955C92.996,60.955 93.404,60.907 93.698,60.811C93.992,60.715 94.216,60.561 94.369,60.35C94.522,60.138 94.598,59.908 94.598,59.66C94.598,59.297 94.45,58.998 94.154,58.764C93.858,58.529 93.39,58.412 92.751,58.412L90.02,58.412L90.02,60.955Z" style="fill:white;fill-rule:nonzero;"/>
        </g>
        <g transform="matrix(4.16667,0,0,4.16667,0,0)">
            <path d="M101.706,63.456L102.801,63.577C102.628,64.146 102.309,64.589 101.842,64.903C101.375,65.218 100.779,65.375 100.053,65.375C99.139,65.375 98.414,65.124 97.879,64.623C97.343,64.121 97.076,63.418 97.076,62.512C97.076,61.576 97.346,60.849 97.888,60.331C98.429,59.814 99.131,59.555 99.994,59.555C100.83,59.555 101.512,59.809 102.042,60.316C102.571,60.822 102.836,61.535 102.836,62.455C102.836,62.511 102.834,62.594 102.83,62.706L98.17,62.706C98.209,63.318 98.403,63.786 98.753,64.111C99.102,64.436 99.537,64.599 100.059,64.599C100.447,64.599 100.779,64.508 101.053,64.326C101.328,64.145 101.546,63.855 101.706,63.456ZM98.229,61.93L101.718,61.93C101.671,61.462 101.538,61.111 101.318,60.877C100.981,60.513 100.543,60.331 100.006,60.331C99.52,60.331 99.111,60.476 98.779,60.766C98.448,61.057 98.264,61.445 98.229,61.93Z" style="fill:white;fill-rule:nonzero;"/>
        </g>
        <g transform="matrix(4.16667,0,0,4.16667,0,0)">
            <path d="M108.208,64.562C107.816,64.859 107.439,65.069 107.076,65.191C106.713,65.314 106.324,65.375 105.908,65.375C105.221,65.375 104.694,65.226 104.325,64.927C103.956,64.628 103.772,64.246 103.772,63.781C103.772,63.508 103.841,63.259 103.981,63.034C104.12,62.809 104.302,62.628 104.528,62.491C104.753,62.355 105.007,62.252 105.29,62.182C105.498,62.133 105.812,62.086 106.231,62.04C107.087,61.95 107.716,61.841 108.12,61.715C108.124,61.586 108.126,61.504 108.126,61.469C108.126,61.085 108.026,60.814 107.826,60.656C107.555,60.443 107.153,60.337 106.62,60.337C106.122,60.337 105.754,60.414 105.516,60.57C105.279,60.725 105.104,61.001 104.99,61.396L103.954,61.27C104.048,60.875 104.203,60.556 104.419,60.313C104.635,60.07 104.947,59.883 105.355,59.752C105.763,59.621 106.235,59.555 106.773,59.555C107.306,59.555 107.74,59.611 108.073,59.723C108.407,59.835 108.652,59.976 108.809,60.145C108.966,60.315 109.075,60.529 109.138,60.787C109.174,60.948 109.191,61.238 109.191,61.658L109.191,62.916C109.191,63.793 109.214,64.348 109.259,64.581C109.304,64.813 109.393,65.036 109.527,65.249L108.42,65.249C108.31,65.053 108.24,64.824 108.208,64.562ZM108.12,62.455C107.736,62.594 107.159,62.713 106.39,62.811C105.955,62.867 105.647,62.93 105.466,63C105.286,63.07 105.147,63.172 105.049,63.307C104.951,63.441 104.902,63.591 104.902,63.755C104.902,64.007 105.008,64.216 105.222,64.384C105.436,64.552 105.749,64.636 106.161,64.636C106.569,64.636 106.932,64.556 107.249,64.397C107.567,64.238 107.801,64.021 107.95,63.744C108.063,63.531 108.12,63.217 108.12,62.801L108.12,62.455Z" style="fill:white;fill-rule:nonzero;"/>
        </g>
        <g transform="matrix(4.16667,0,0,4.16667,0,0)">
            <rect x="110.809" y="57.563" width="1.059" height="7.686" style="fill:white;fill-rule:nonzero;"/>
        </g>
        <g transform="matrix(4.16667,0,0,4.16667,0,0)">
            <path d="M115.823,64.405L115.976,65.239C115.677,65.295 115.411,65.323 115.175,65.323C114.791,65.323 114.493,65.268 114.281,65.16C114.069,65.052 113.92,64.909 113.834,64.733C113.747,64.556 113.704,64.185 113.704,63.619L113.704,60.415L112.928,60.415L112.928,59.681L113.704,59.681L113.704,58.302L114.758,57.736L114.758,59.681L115.823,59.681L115.823,60.415L114.758,60.415L114.758,63.671C114.758,63.94 114.776,64.113 114.813,64.19C114.851,64.267 114.912,64.328 114.996,64.374C115.08,64.419 115.201,64.442 115.358,64.442C115.475,64.442 115.63,64.43 115.823,64.405Z" style="fill:white;fill-rule:nonzero;"/>
        </g>
        <g transform="matrix(4.16667,0,0,4.16667,0,0)">
            <path d="M116.811,67.394L116.693,66.507C116.925,66.563 117.127,66.591 117.3,66.591C117.535,66.591 117.723,66.556 117.864,66.486C118.006,66.417 118.121,66.319 118.212,66.193C118.278,66.099 118.386,65.864 118.535,65.49C118.555,65.438 118.586,65.361 118.629,65.26L116.258,59.681L117.4,59.681L118.7,62.906C118.869,63.315 119.02,63.744 119.153,64.195C119.275,63.762 119.42,63.339 119.589,62.927L120.924,59.681L121.983,59.681L119.606,65.344C119.351,65.955 119.153,66.376 119.012,66.607C118.824,66.918 118.608,67.146 118.365,67.291C118.121,67.436 117.831,67.509 117.494,67.509C117.29,67.509 117.062,67.47 116.811,67.394Z" style="fill:white;fill-rule:nonzero;"/>
        </g>
    </g>
</svg>
